<?xml version="1.0" encoding="utf-8"?>
<!-- Generator: Adobe Illustrator 25.4.1, SVG Export Plug-In . SVG Version: 6.00 Build 0)  -->
<svg version="1.1" id="Capa_1" xmlns="http://www.w3.org/2000/svg" xmlns:xlink="http://www.w3.org/1999/xlink" x="0px" y="0px"
	 viewBox="0 0 1500 1500" style="enable-background:new 0 0 1500 1500;" xml:space="preserve">
<style type="text/css">
	.st0{fill:#E9E5D6;stroke:#E9E5D6;stroke-width:10;stroke-miterlimit:10;}
</style>
<g>
	<path class="st0" d="M750.01,1383.71c-349.43,0-633.71-284.27-633.71-633.71c0-349.42,284.28-633.7,633.71-633.7
		c349.42,0,633.69,284.28,633.69,633.7C1383.7,1099.43,1099.43,1383.71,750.01,1383.71z M750.01,101.09
		c-358.36,0-648.92,290.53-648.92,648.91c0,358.38,290.56,648.91,648.92,648.91c358.38,0,648.91-290.53,648.91-648.91
		C1398.91,391.62,1108.39,101.09,750.01,101.09z M1115.02,904.64c-18.17,0-32.95-14.79-32.95-32.96c0-18.17,14.79-32.95,32.95-32.96
		c18.16,0,32.95,14.79,32.95,32.96C1147.97,889.86,1133.18,904.64,1115.02,904.64z M1115.02,823.51
		c-26.55,0-48.17,21.62-48.17,48.18c0,26.55,21.61,48.16,48.17,48.16c26.55,0,48.16-21.61,48.16-48.16
		C1163.18,845.12,1141.56,823.51,1115.02,823.51z M959.36,1098.6c-35.23-35.25-45.59-86.06-48.42-106.51
		c20.46,2.82,71.26,13.17,106.48,48.38c35.27,35.27,45.61,86.08,48.44,106.53C1045.45,1144.18,994.74,1133.89,959.36,1098.6z
		 M902.8,975.92c-2.09-0.06-4.28,0.69-5.82,2.22c-1.54,1.53-2.33,3.64-2.2,5.81c0.17,3.08,4.85,76.39,53.85,125.4
		c49.05,48.94,122.31,53.63,125.41,53.82c0.14,0,0.29,0.01,0.43,0.01c2,0,3.94-0.79,5.37-2.23c1.54-1.53,2.33-3.65,2.21-5.8
		c-0.18-3.09-4.84-76.4-53.86-125.42C979.23,980.74,905.89,976.09,902.8,975.92z M385,904.64c-18.17,0-32.96-14.79-32.96-32.96
		c0-18.17,14.8-32.95,32.96-32.96c18.17,0,32.96,14.79,32.96,32.96C417.95,889.86,403.17,904.64,385,904.64z M433.17,871.68
		c0-26.55-21.62-48.16-48.17-48.18c-26.55-0.01-48.17,21.62-48.17,48.18c0,26.55,21.61,48.16,48.17,48.16
		C411.56,919.84,433.17,898.24,433.17,871.68z M466.52,472.93c1.61-3.89,6.06-5.72,9.94-4.12l53.28,22.07
		c3.87,1.61,5.72,6.06,4.11,9.95c-1.21,2.93-4.05,4.7-7.02,4.7c-0.97,0-1.96-0.19-2.9-0.59l-53.28-22.05
		C466.76,481.27,464.91,476.81,466.52,472.93z M871.03,1151.49c1.61,3.87-0.23,8.33-4.12,9.93c-0.94,0.39-1.94,0.58-2.9,0.58
		c-2.98,0-5.81-1.76-7.04-4.68l-22.09-53.27c-1.61-3.89,0.23-8.34,4.12-9.95c3.85-1.56,8.32,0.24,9.93,4.12L871.03,1151.49z
		 M664.35,1104l-22.07,53.27c-1.22,2.92-4.05,4.7-7.03,4.7c-0.98,0-1.96-0.18-2.92-0.59c-3.88-1.61-5.71-6.05-4.1-9.94l22.05-53.25
		c1.61-3.89,6.06-5.72,9.95-4.11C664.11,1095.68,665.96,1100.13,664.35,1104z M834.94,364.43l22.05-53.24
		c1.61-3.87,6.07-5.7,9.94-4.11c3.89,1.61,5.72,6.06,4.12,9.94L849,370.25c-1.22,2.93-4.05,4.7-7.04,4.7
		c-0.97,0-1.96-0.19-2.91-0.59C835.18,372.77,833.33,368.31,834.94,364.43z M969.61,490.88l53.26-22.07
		c3.84-1.57,8.34,0.24,9.93,4.12c1.61,3.89-0.23,8.34-4.11,9.95l-53.27,22.05c-0.94,0.4-1.94,0.58-2.9,0.59
		c-2.98,0-5.82-1.76-7.04-4.7C963.88,496.94,965.72,492.49,969.61,490.88z M628.28,317.01c-1.61-3.88,0.24-8.34,4.11-9.95
		c3.88-1.58,8.33,0.22,9.94,4.12l22.07,53.27c1.61,3.88-0.23,8.33-4.12,9.94c-0.94,0.4-1.92,0.57-2.91,0.58
		c-2.98,0-5.82-1.76-7.02-4.7L628.28,317.01z M532.98,384.25c-2.97-2.98-2.97-7.78,0-10.76c2.96-2.96,7.79-2.98,10.75,0l40.75,40.79
		c2.98,2.97,2.98,7.78,0,10.75c-1.48,1.48-3.43,2.21-5.37,2.23c-1.94,0-3.89-0.74-5.36-2.23L532.98,384.25z M914.85,425.01
		c-2.97-2.96-2.97-7.78,0-10.76l40.77-40.77c2.95-2.98,7.78-2.98,10.74-0.01c2.98,2.97,2.98,7.78,0,10.76L925.61,425
		c-1.48,1.5-3.43,2.23-5.39,2.23C918.26,427.23,916.33,426.5,914.85,425.01z M742.04,349v-57.64c0-4.2,3.4-7.6,7.6-7.6
		c4.19,0,7.61,3.4,7.61,7.6V349c0,4.21-3.42,7.6-7.61,7.6C745.44,356.6,742.04,353.19,742.04,349z M554.25,834.62
		c-63.97-64.01-79.57-157.9-82.97-186.95c29.03,3.37,122.83,18.9,186.94,82.99c63.98,63.98,79.56,157.9,82.95,186.94
		C712.17,914.23,618.35,898.71,554.25,834.62z M749.63,432.82c84.54,0,153.34,68.8,153.34,153.35c0,84.53-68.8,153.31-153.34,153.31
		c-84.51,0-153.25-68.78-153.25-153.31C596.38,501.62,665.14,432.82,749.63,432.82z M945.02,834.62
		c-63.99,63.98-157.88,79.57-186.94,82.97c3.39-29.05,18.99-122.95,82.97-186.94c64.01-63.98,157.88-79.58,186.91-82.97
		C1024.58,676.72,1009.01,770.62,945.02,834.62z M749.63,876.24c-8.22-36.82-25.18-88.15-59.87-132.75
		c18.64,7.12,38.77,11.19,59.87,11.2c21.1,0,41.25-4.07,59.88-11.19C774.83,788.11,757.87,839.43,749.63,876.24z M955.77,845.36
		c80.33-80.34,87.96-200.63,88.24-205.7c0.13-2.17-0.69-4.27-2.21-5.8c-1.53-1.53-3.6-2.32-5.81-2.22
		c-3.85,0.22-73.79,4.68-142.41,41.75c15.51-25.48,24.6-55.26,24.6-87.22c0-92.95-75.6-168.55-168.55-168.55
		c-92.89,0-168.47,75.62-168.47,168.55c0,31.97,9.11,61.76,24.62,87.25c-68.65-37.09-138.65-41.58-142.51-41.79
		c-2.17-0.09-4.27,0.69-5.8,2.22c-1.54,1.53-2.33,3.64-2.21,5.8c0.28,5.09,7.93,125.39,88.25,205.7
		c70.16,70.15,170.77,84.87,198.53,87.66v303.68c0,4.2,3.4,7.6,7.6,7.58c4.19-0.01,7.61-3.42,7.61-7.58V933.02
		C784.98,930.23,885.61,915.52,955.77,845.36z M540.61,1098.59c-35.22,35.21-86.02,45.56-106.45,48.39
		c2.82-20.44,13.17-71.24,48.41-106.5v0.01c35.27-35.23,86.08-45.55,106.49-48.39C586.26,1012.52,575.96,1063.25,540.61,1098.59z
		 M597.21,975.92c-3.1,0.16-76.39,4.81-125.4,53.81c-49.01,49.02-53.68,122.32-53.85,125.42c-0.13,2.17,0.69,4.29,2.22,5.8
		c1.42,1.43,3.36,2.23,5.37,2.23c0.14,0,0.28,0,0.43-0.01c3.1-0.17,76.39-4.85,125.36-53.82c49.03-49.02,53.7-122.31,53.9-125.4
		c0.12-2.17-0.68-4.28-2.22-5.81C601.5,976.62,599.59,975.85,597.21,975.92z"/>
</g>
</svg>
