<svg xmlns="http://www.w3.org/2000/svg" version="1.1" xmlns:xlink="http://www.w3.org/1999/xlink" xmlns:svgjs="http://svgjs.dev/svgjs" width="1000" height="522" viewBox="0 0 1000 522"><g transform="matrix(1,0,0,1,-0.6060606060606233,0.04385588183697564)"><svg viewBox="0 0 396 207" data-background-color="#fefee2" preserveAspectRatio="xMidYMid meet" height="522" width="1000" xmlns="http://www.w3.org/2000/svg" xmlns:xlink="http://www.w3.org/1999/xlink"><defs></defs><g id="tight-bounds" transform="matrix(1,0,0,1,0.2400000000000091,-0.017391125556031284)"><svg viewBox="0 0 395.52 207.03478225111206" height="207.03478225111206" width="395.52"><g><svg viewBox="0 0 397.4975999999999 208.0699561623676" height="207.03478225111206" width="395.52"><g><rect width="397.4975999999999" height="5.688636030371549" x="0" y="85.42107207245434" fill="#7fc37e" opacity="1" stroke-width="0" stroke="transparent" fill-opacity="1" class="rect-o-0" data-fill-palette-color="secondary" rx="1%" id="o-0" data-palette-color="#7fc37e"></rect></g><g transform="matrix(1,0,0,1,0.9887999999999693,106.00142545981947)"><svg viewBox="0 0 395.52 102.06853070254812" height="102.06853070254812" width="395.52"><g><svg viewBox="0 0 395.52 102.06853070254812" height="102.06853070254812" width="395.52"><g><svg viewBox="0 0 395.52 63.080183318056825" height="63.080183318056825" width="395.52"><g transform="matrix(1,0,0,1,0,0)"><svg width="395.52" viewBox="1.0499999523162842 -33.95000076293945 218.17999267578125 34.79999923706055" height="63.080183318056825" data-palette-color="#7fc37e"><path d="M18.2 0.85L18.2 0.85Q13.1 0.85 9.25-1.3 5.4-3.45 3.23-7.38 1.05-11.3 1.05-16.6L1.05-16.6Q1.05-21.8 3.18-25.7 5.3-29.6 9.35-31.78 13.4-33.95 19.05-33.95L19.05-33.95Q21.75-33.95 24.08-33.35 26.4-32.75 28.45-31.6L28.45-31.6 28.65-24.45 27.3-24.45 24.8-29.5Q24.2-30.7 23.65-31.25 23.1-31.8 22.2-32.05L22.2-32.05Q21.55-32.3 20.95-32.38 20.35-32.45 19.4-32.45L19.4-32.45Q16.25-32.45 13.85-30.83 11.45-29.2 10.13-25.7 8.8-22.2 8.8-16.6L8.8-16.6Q8.8-8.15 11.58-4.38 14.35-0.6 19-0.6L19-0.6Q20.1-0.6 20.9-0.9L20.9-0.9Q21.85-1.05 22.2-1.68 22.55-2.3 22.55-3.25L22.55-3.25Q22.55-5.3 22.53-7.73 22.5-10.15 22.5-12.15L22.5-12.15Q22.5-14.1 20.45-14.55L20.45-14.55 18.2-15.05 18.2-16.1 32-16.1 32-15.05 31.4-14.9Q30.45-14.6 29.95-14.03 29.45-13.45 29.45-12.45L29.45-12.45Q29.45-10.45 29.43-8.38 29.4-6.3 29.4-4.2L29.4-4.2 29.4-2.05Q26.8-0.65 24.13 0.1 21.45 0.85 18.2 0.85ZM49.6 0.85L49.6 0.85Q45.85 0.85 42.97-0.5 40.1-1.85 38.47-4.78 36.85-7.7 36.85-12.5L36.85-12.5 36.85-17.9Q36.85-20.7 36.85-23.55 36.85-26.4 36.8-29.3L36.8-29.3Q36.8-31.25 34.95-31.75L34.95-31.75 33.85-32 33.85-33.05 47.35-33.05 47.35-32 45.95-31.7Q44.05-31.25 44.05-29.2L44.05-29.2Q44-26.4 44-23.58 44-20.75 44-17.9L44-17.9 44-11.55Q44-6.7 45.97-4.55 47.95-2.4 51.6-2.4L51.6-2.4Q55.45-2.4 57.62-4.73 59.8-7.05 59.8-11.65L59.8-11.65 59.8-29.05Q59.8-30.05 59.4-30.8 59-31.55 58-31.75L58-31.75 56.8-32 56.8-33.05 64.5-33.05 64.5-32 63.1-31.7Q62.15-31.5 61.8-30.8 61.45-30.1 61.45-29.1L61.45-29.1 61.45-11.95Q61.45-5.75 58.2-2.45 54.95 0.85 49.6 0.85ZM79.2 0L66.7 0 66.7-1.05 67.7-1.35Q68.7-1.7 69.02-2.27 69.35-2.85 69.35-3.9L69.35-3.9 69.35-29.15Q69.35-30.2 69.02-30.78 68.7-31.35 67.7-31.7L67.7-31.7 66.7-32 66.7-33.05 79.2-33.05 79.2-32 78.2-31.7Q77.25-31.35 76.9-30.78 76.55-30.2 76.55-29.15L76.55-29.15 76.55-3.9Q76.55-2.85 76.9-2.27 77.25-1.7 78.2-1.35L78.2-1.35 79.2-1.05 79.2 0ZM106.29 0L81.49 0 81.49-1.05 82.49-1.4Q83.39-1.65 83.74-2.27 84.09-2.9 84.14-4L84.14-4 84.14-29.15Q84.09-30.2 83.79-30.78 83.49-31.35 82.54-31.65L82.54-31.65 81.49-32 81.49-33.05 105.29-33.05 105.64-25.05 104.24-25.05 102.24-29.55Q101.84-30.5 101.34-31.03 100.84-31.55 99.84-31.55L99.84-31.55 91.34-31.55Q91.29-28.45 91.29-25.18 91.29-21.9 91.29-17.8L91.29-17.8 96.24-17.8Q97.24-17.8 97.77-18.32 98.29-18.85 98.74-19.75L98.74-19.75 99.59-21.65 100.69-21.65 100.69-12.4 99.59-12.4 98.69-14.3Q98.29-15.2 97.79-15.75 97.29-16.3 96.29-16.3L96.29-16.3 91.29-16.3Q91.29-12.7 91.29-10.1 91.29-7.5 91.32-5.48 91.34-3.45 91.34-1.5L91.34-1.5 100.94-1.5Q101.94-1.5 102.49-2.02 103.04-2.55 103.39-3.5L103.39-3.5 105.24-8 106.64-8 106.29 0ZM121.44 0L109.19 0 109.19-1.05 110.19-1.4Q111.79-1.9 111.79-3.9L111.79-3.9Q111.84-6.75 111.84-9.73 111.84-12.7 111.84-15.8L111.84-15.8 111.84-17.55Q111.84-20.45 111.84-23.35 111.84-26.25 111.79-29.15L111.79-29.15Q111.79-31.2 110.24-31.7L110.24-31.7 109.19-32 109.19-33.05 122.34-33.05Q127.59-33.05 131.39-31.1 135.19-29.15 137.24-25.48 139.29-21.8 139.29-16.6L139.29-16.6Q139.29-11.3 137.07-7.6 134.84-3.9 130.82-1.95 126.79 0 121.44 0L121.44 0ZM119.04-1.45L119.04-1.45 121.59-1.45Q125.14-1.45 127.37-2.85 129.59-4.25 130.64-7.58 131.69-10.9 131.69-16.55L131.69-16.55Q131.69-22.2 130.64-25.5 129.59-28.8 127.42-30.2 125.24-31.6 121.79-31.6L121.79-31.6 119.04-31.6Q118.99-28.15 118.99-24.63 118.99-21.1 118.99-17.55L118.99-17.55 118.99-15.85Q118.99-12.1 118.99-8.53 118.99-4.95 119.04-1.45ZM148.34 0L140.69 0 140.69-1.05 142.04-1.45Q143.09-1.75 143.66-2.35 144.24-2.95 144.59-4L144.59-4 154.69-33.2 158.84-33.2 168.89-3.8Q169.29-2.7 169.79-2.13 170.29-1.55 171.39-1.2L171.39-1.2 172.14-1 172.14 0 159.44 0 159.44-1 160.29-1.25Q161.39-1.6 161.61-2.35 161.84-3.1 161.49-4.2L161.49-4.2 159.39-10.65 148.34-10.65 146.19-4.3Q145.84-3.2 145.99-2.5 146.14-1.8 147.24-1.4L147.24-1.4 148.34-1.05 148.34 0ZM154.04-27.15L148.84-12.1 158.94-12.1 154.04-27.15ZM182.24 0L174.54 0 174.54-1.05 175.99-1.45Q176.94-1.7 177.31-2.4 177.69-3.1 177.69-4.1L177.69-4.1 177.69-28.3Q177.24-29.25 176.91-29.73 176.59-30.2 176.24-30.55 175.89-30.9 175.29-31.35L175.29-31.35 174.39-32 174.39-33.05 182.94-33.05 199.54-10.35 199.54-28.9Q199.54-29.9 199.21-30.65 198.89-31.4 197.89-31.65L197.89-31.65 196.39-32 196.39-33.05 203.84-33.05 203.84-32 202.59-31.65Q201.64-31.35 201.41-30.63 201.19-29.9 201.19-28.9L201.19-28.9 201.19 0.2 198.39 0.2 179.34-26 179.34-4.15Q179.34-3.1 179.64-2.4 179.94-1.7 180.89-1.45L180.89-1.45 182.24-1.05 182.24 0ZM219.23 0L206.73 0 206.73-1.05 207.73-1.35Q208.73-1.7 209.06-2.27 209.38-2.85 209.38-3.9L209.38-3.9 209.38-29.15Q209.38-30.2 209.06-30.78 208.73-31.35 207.73-31.7L207.73-31.7 206.73-32 206.73-33.05 219.23-33.05 219.23-32 218.23-31.7Q217.28-31.35 216.93-30.78 216.58-30.2 216.58-29.15L216.58-29.15 216.58-3.9Q216.58-2.85 216.93-2.27 217.28-1.7 218.23-1.35L218.23-1.35 219.23-1.05 219.23 0Z" opacity="1" transform="matrix(1,0,0,1,0,0)" fill="#7fc37e" class="undefined-text-0" data-fill-palette-color="primary" id="text-0"></path></svg></g></svg></g><g transform="matrix(1,0,0,1,0,77.9719006750504)"><svg viewBox="0 0 395.52 24.096630027497707" height="24.096630027497707" width="395.52"><g transform="matrix(1,0,0,1,0,0)"><svg width="395.52" viewBox="1.75 -37.5 820.7000122070312 50" height="24.096630027497707" data-palette-color="#7fc37e"><path d="M28.7-2.1L28.7-2.1 28.05-2.95Q26.15-1.85 23.98-1.25 21.8-0.65 19.45-0.65L19.45-0.65Q16.05-0.65 13-1.98 9.95-3.3 7.7-5.6L7.7-5.6Q5.45-7.85 4.13-10.9 2.8-13.95 2.8-17.4L2.8-17.4Q2.8-20.9 4.13-23.98 5.45-27.05 7.75-29.35L7.75-29.35Q10-31.7 13.05-33.02 16.1-34.35 19.6-34.35L19.6-34.35Q21.75-34.35 23.83-33.83 25.9-33.3 27.7-32.25L27.7-32.25 27.7-27.3 28.75-27.3 28.75-32.9Q26.7-34.1 24.43-34.75 22.15-35.4 19.6-35.4L19.6-35.4Q15.9-35.4 12.65-33.98 9.4-32.55 7-30.15L7-30.15Q4.55-27.7 3.15-24.43 1.75-21.15 1.75-17.45L1.75-17.45Q1.75-13.75 3.15-10.5 4.55-7.25 7-4.85L7-4.85Q9.4-2.4 12.65-1 15.9 0.4 19.6 0.4L19.6 0.4Q22.15 0.4 24.43-0.28 26.7-0.95 28.7-2.1ZM95.87 0L100.57 0 100.57-1.05 96.87-1.05 96.87-18.75 96.07-18.75Q95.97-17.4 95.92-16.05 95.87-14.7 95.87-13.35L95.87-13.35Q94.87-15.85 92.52-17.5 90.17-19.15 87.12-19.15L87.12-19.15Q85.07-19.15 83.3-18.38 81.52-17.6 80.22-16.3L80.22-16.3Q78.87-15 78.12-13.2 77.37-11.4 77.37-9.4L77.37-9.4Q77.37-7.35 78.12-5.6 78.87-3.85 80.22-2.55L80.22-2.55Q81.52-1.2 83.3-0.45 85.07 0.3 87.12 0.3L87.12 0.3Q88.67 0.3 90.05-0.13 91.42-0.55 92.62-1.35L92.62-1.35Q93.72-2.15 94.57-3.2 95.42-4.25 95.92-5.45L95.92-5.45Q95.92-4.7 95.9-4 95.87-3.3 95.87-2.55L95.87-2.55 95.87 0ZM87.12-18.1L87.12-18.1Q88.87-18.1 90.47-17.45 92.07-16.8 93.27-15.6L93.27-15.6Q94.47-14.4 95.15-12.8 95.82-11.2 95.82-9.4L95.82-9.4Q95.82-7.55 95.15-5.98 94.47-4.4 93.27-3.25L93.27-3.25Q92.07-2.05 90.47-1.38 88.87-0.7 87.12-0.7L87.12-0.7Q85.27-0.7 83.72-1.38 82.17-2.05 81.02-3.25L81.02-3.25Q79.82-4.4 79.12-5.98 78.42-7.55 78.42-9.4L78.42-9.4Q78.42-11.2 79.1-12.78 79.77-14.35 80.97-15.55L80.97-15.55Q82.12-16.75 83.7-17.43 85.27-18.1 87.12-18.1ZM149.19 0L158.14 0 158.14-1.05 153.29-1.05 153.29-17.7 159.74-17.7 159.74-18.75 153.29-18.75 153.29-26.05Q153.29-28.45 153.97-30.38 154.64-32.3 155.84-33.65L155.84-33.65Q156.99-35 158.54-35.73 160.09-36.45 161.79-36.5L161.79-36.5 161.79-37.5Q159.79-37.4 158.07-36.63 156.34-35.85 155.04-34.4L155.04-34.4Q153.74-32.95 152.99-30.8 152.24-28.65 152.24-25.9L152.24-25.9 152.24-18.75 149.19-18.75 149.19-17.7 152.24-17.7 152.24-1.05 149.19-1.05 149.19 0ZM218.41-18.1L218.41-18.1Q220.76-18.1 222.66-16.78 224.56-15.45 225.51-13.3L225.51-13.3Q221.66-11.75 217.79-10.2 213.91-8.65 210.01-7.05L210.01-7.05Q209.46-9.1 209.89-11.08 210.31-13.05 211.46-14.6L211.46-14.6Q212.61-16.2 214.41-17.15 216.21-18.1 218.41-18.1ZM225.01-2.3L225.01-2.3 224.36-3.1Q223.21-1.95 221.66-1.33 220.11-0.7 218.41-0.7L218.41-0.7Q215.61-0.7 213.49-2.2 211.36-3.7 210.36-6.1L210.36-6.1Q214.51-7.8 218.61-9.43 222.71-11.05 226.86-12.75L226.86-12.75Q226.36-14.15 225.56-15.28 224.76-16.4 223.76-17.25L223.76-17.25Q222.66-18.15 221.29-18.65 219.91-19.15 218.41-19.15L218.41-19.15Q216.36-19.15 214.59-18.38 212.81-17.6 211.51-16.3L211.51-16.3Q210.16-15 209.41-13.2 208.66-11.4 208.66-9.4L208.66-9.4Q208.66-7.35 209.41-5.6 210.16-3.85 211.51-2.5L211.51-2.5Q212.81-1.2 214.59-0.45 216.36 0.3 218.41 0.3L218.41 0.3Q220.36 0.3 222.04-0.4 223.71-1.1 225.01-2.3ZM352.5-2.55L352.5-2.55Q353.8-3.85 354.58-5.6 355.35-7.35 355.35-9.4L355.35-9.4Q355.35-11.4 354.58-13.2 353.8-15 352.5-16.35L352.5-16.35Q351.15-17.65 349.35-18.43 347.55-19.2 345.55-19.2L345.55-19.2Q343.45-19.2 341.7-18.43 339.95-17.65 338.65-16.35L338.65-16.35Q337.3-15 336.55-13.2 335.8-11.4 335.8-9.4L335.8-9.4Q335.8-7.35 336.55-5.6 337.3-3.85 338.65-2.55L338.65-2.55Q339.95-1.2 341.7-0.45 343.45 0.3 345.55 0.3L345.55 0.3Q347.55 0.3 349.35-0.45 351.15-1.2 352.5-2.55ZM339.4-3.3L339.4-3.3Q338.2-4.45 337.53-6 336.85-7.55 336.85-9.4L336.85-9.4Q336.85-11.2 337.53-12.78 338.2-14.35 339.4-15.55L339.4-15.55Q340.55-16.75 342.13-17.43 343.7-18.1 345.5-18.1L345.5-18.1Q347.3-18.1 348.9-17.43 350.5-16.75 351.7-15.55L351.7-15.55Q352.9-14.35 353.58-12.78 354.25-11.2 354.25-9.4L354.25-9.4Q354.25-7.55 353.58-6 352.9-4.45 351.7-3.3L351.7-3.3Q350.5-2.05 348.9-1.38 347.3-0.7 345.5-0.7L345.5-0.7Q343.7-0.7 342.13-1.38 340.55-2.05 339.4-3.3ZM403.97 0L412.92 0 412.92-1.05 408.97-1.05 408.97-10.8Q408.97-12.35 409.62-13.7 410.27-15.05 411.37-15.95L411.37-15.95Q412.47-16.95 413.92-17.48 415.37-18 416.97-18.05L416.97-18.05 416.97-19.1Q415.67-19.05 414.47-18.7 413.27-18.35 412.22-17.7L412.22-17.7Q411.07-17.05 410.22-16.07 409.37-15.1 408.82-13.85L408.82-13.85Q408.77-14.55 408.77-14.98 408.77-15.4 408.72-16.1L408.72-16.1 408.62-18.75 404.22-18.75 404.22-17.7 407.92-17.7 407.92-1.05 403.97-1.05 403.97 0ZM469.04 8.85L468.29 9.65Q469.59 11.15 471.44 11.83 473.29 12.5 475.79 12.5L475.79 12.5Q477.69 12.45 479.39 11.65 481.09 10.85 482.39 9.45L482.39 9.45Q483.64 8 484.37 5.93 485.09 3.85 485.09 1.1L485.09 1.1 485.09-17.7 488.79-17.7 488.79-18.75 484.29-18.75Q484.19-17.4 484.14-16.05 484.09-14.7 484.09-13.35L484.09-13.35Q483.04-15.85 480.69-17.5 478.34-19.15 475.34-19.15L475.34-19.15Q473.29-19.15 471.52-18.38 469.74-17.6 468.44-16.3L468.44-16.3Q467.09-15 466.34-13.2 465.59-11.4 465.59-9.4L465.59-9.4Q465.59-7.35 466.34-5.6 467.09-3.85 468.44-2.55L468.44-2.55Q469.74-1.2 471.52-0.45 473.29 0.3 475.34 0.3L475.34 0.3Q476.84 0.3 478.24-0.13 479.64-0.55 480.79-1.35L480.79-1.35Q481.89-2.1 482.74-3.15 483.59-4.2 484.09-5.45L484.09-5.45Q484.09-4.7 484.07-3.95 484.04-3.2 484.04-2.5L484.04-2.5 484.04 1.25Q484.04 3.55 483.37 5.43 482.69 7.3 481.59 8.65L481.59 8.65Q480.49 10 478.97 10.73 477.44 11.45 475.79 11.45L475.79 11.45Q473.79 11.45 471.99 10.8 470.19 10.15 469.04 8.85L469.04 8.85ZM475.34-18.1L475.34-18.1Q477.09-18.1 478.69-17.45 480.29-16.8 481.49-15.6L481.49-15.6Q482.69-14.4 483.37-12.8 484.04-11.2 484.04-9.4L484.04-9.4Q484.04-7.55 483.37-6 482.69-4.45 481.49-3.3L481.49-3.3Q480.29-2.1 478.72-1.4 477.14-0.7 475.34-0.7L475.34-0.7Q473.49-0.7 471.92-1.38 470.34-2.05 469.19-3.25L469.19-3.25Q467.99-4.4 467.32-5.98 466.64-7.55 466.64-9.4L466.64-9.4Q466.64-11.2 467.32-12.78 467.99-14.35 469.19-15.55L469.19-15.55Q470.34-16.75 471.92-17.43 473.49-18.1 475.34-18.1ZM555.91 0L560.61 0 560.61-1.05 556.91-1.05 556.91-18.75 556.11-18.75Q556.01-17.4 555.96-16.05 555.91-14.7 555.91-13.35L555.91-13.35Q554.91-15.85 552.56-17.5 550.21-19.15 547.16-19.15L547.16-19.15Q545.11-19.15 543.34-18.38 541.56-17.6 540.26-16.3L540.26-16.3Q538.91-15 538.16-13.2 537.41-11.4 537.41-9.4L537.41-9.4Q537.41-7.35 538.16-5.6 538.91-3.85 540.26-2.55L540.26-2.55Q541.56-1.2 543.34-0.45 545.11 0.3 547.16 0.3L547.16 0.3Q548.71 0.3 550.09-0.13 551.46-0.55 552.66-1.35L552.66-1.35Q553.76-2.15 554.61-3.2 555.46-4.25 555.96-5.45L555.96-5.45Q555.96-4.7 555.94-4 555.91-3.3 555.91-2.55L555.91-2.55 555.91 0ZM547.16-18.1L547.16-18.1Q548.91-18.1 550.51-17.45 552.11-16.8 553.31-15.6L553.31-15.6Q554.51-14.4 555.19-12.8 555.86-11.2 555.86-9.4L555.86-9.4Q555.86-7.55 555.19-5.98 554.51-4.4 553.31-3.25L553.31-3.25Q552.11-2.05 550.51-1.38 548.91-0.7 547.16-0.7L547.16-0.7Q545.31-0.7 543.76-1.38 542.21-2.05 541.06-3.25L541.06-3.25Q539.86-4.4 539.16-5.98 538.46-7.55 538.46-9.4L538.46-9.4Q538.46-11.2 539.14-12.78 539.81-14.35 541.01-15.55L541.01-15.55Q542.16-16.75 543.74-17.43 545.31-18.1 547.16-18.1ZM609.23 0L618.18 0 618.18-1.05 614.23-1.05 614.23-10.8Q614.23-12.4 614.88-13.73 615.53-15.05 616.73-16.05L616.73-16.05Q617.83-17 619.33-17.53 620.83-18.05 622.48-18.05L622.48-18.05Q624.63-17.95 625.83-16.68 627.03-15.4 627.13-13.65L627.13-13.65 627.13-1.05 623.18-1.05 623.18 0 632.13 0 632.13-1.05 628.18-1.05 628.18-13.5Q628.08-16 626.53-17.55 624.98-19.1 622.28-19.1L622.28-19.1Q619.48-19.1 617.28-17.65 615.08-16.2 614.08-13.85L614.08-13.85Q614.03-14.55 614.01-15.08 613.98-15.6 613.98-16.3L613.98-16.3 613.88-18.75 609.48-18.75 609.48-17.7 613.18-17.7 613.18-1.05 609.23-1.05 609.23 0ZM680.75 0L689.7 0 689.7-1.05 685.85-1.05 685.85-18.75 680.75-18.75 680.75-17.7 684.8-17.7 684.8-1.05 680.75-1.05 680.75 0ZM686.5-25.1L686.5-25.1Q686.5-25.6 686.15-25.93 685.8-26.25 685.3-26.25L685.3-26.25Q684.85-26.25 684.5-25.93 684.15-25.6 684.15-25.1L684.15-25.1Q684.15-24.65 684.5-24.3 684.85-23.95 685.3-23.95L685.3-23.95Q685.8-23.95 686.15-24.3 686.5-24.65 686.5-25.1ZM754.23-1.85L754.23-1.85 753.53-2.6Q752.38-1.75 751-1.23 749.63-0.7 748.08-0.7L748.08-0.7Q746.23-0.7 744.65-1.38 743.08-2.05 741.93-3.25L741.93-3.25Q740.73-4.4 740.05-5.98 739.38-7.55 739.38-9.4L739.38-9.4Q739.38-11.2 740.05-12.8 740.73-14.4 741.93-15.6L741.93-15.6Q743.08-16.8 744.65-17.45 746.23-18.1 748.08-18.1L748.08-18.1Q749.53-18.1 750.83-17.65 752.13-17.2 753.23-16.4L753.23-16.4 753.23-12.5 754.23-12.5 754.23-17Q752.98-18 751.4-18.57 749.83-19.15 748.08-19.15L748.08-19.15Q745.98-19.15 744.23-18.38 742.48-17.6 741.18-16.3L741.18-16.3Q739.83-15 739.08-13.2 738.33-11.4 738.33-9.4L738.33-9.4Q738.33-7.35 739.08-5.6 739.83-3.85 741.18-2.55L741.18-2.55Q742.48-1.2 744.23-0.45 745.98 0.3 748.08 0.3L748.08 0.3Q749.83 0.3 751.38-0.28 752.93-0.85 754.23-1.85ZM819.6-2.55L819.6-2.55Q820.9-3.85 821.67-5.6 822.45-7.35 822.45-9.4L822.45-9.4Q822.45-11.4 821.67-13.2 820.9-15 819.6-16.35L819.6-16.35Q818.25-17.65 816.45-18.43 814.65-19.2 812.65-19.2L812.65-19.2Q810.55-19.2 808.8-18.43 807.05-17.65 805.75-16.35L805.75-16.35Q804.4-15 803.65-13.2 802.9-11.4 802.9-9.4L802.9-9.4Q802.9-7.35 803.65-5.6 804.4-3.85 805.75-2.55L805.75-2.55Q807.05-1.2 808.8-0.45 810.55 0.3 812.65 0.3L812.65 0.3Q814.65 0.3 816.45-0.45 818.25-1.2 819.6-2.55ZM806.5-3.3L806.5-3.3Q805.3-4.45 804.62-6 803.95-7.55 803.95-9.4L803.95-9.4Q803.95-11.2 804.62-12.78 805.3-14.35 806.5-15.55L806.5-15.55Q807.65-16.75 809.22-17.43 810.8-18.1 812.6-18.1L812.6-18.1Q814.4-18.1 816-17.43 817.6-16.75 818.8-15.55L818.8-15.55Q820-14.35 820.67-12.78 821.35-11.2 821.35-9.4L821.35-9.4Q821.35-7.55 820.67-6 820-4.45 818.8-3.3L818.8-3.3Q817.6-2.05 816-1.38 814.4-0.7 812.6-0.7L812.6-0.7Q810.8-0.7 809.22-1.38 807.65-2.05 806.5-3.3Z" opacity="1" transform="matrix(1,0,0,1,0,0)" fill="#7fc37e" class="undefined-text-1" data-fill-palette-color="secondary" id="text-1"></path></svg></g></svg></g></svg></g></svg></g><g transform="matrix(1,0,0,1,155.4841226422696,0)"><svg viewBox="0 0 86.52935471546076 70.52935471546076" height="70.52935471546076" width="86.52935471546076"><g><svg xmlns="http://www.w3.org/2000/svg" xmlns:xlink="http://www.w3.org/1999/xlink" version="1.1" x="8" y="0" viewBox="0 0 100 100" enable-background="new 0 0 100 100" xml:space="preserve" height="70.52935471546076" width="70.52935471546076" class="icon-icon-0" data-fill-palette-color="accent" id="icon-0"><path d="M38.227 67.407c-0.238 0.013-5.885 0.371-9.662 4.146v0c-3.776 3.777-4.136 9.425-4.149 9.664-0.01 0.167 0.053 0.33 0.171 0.447 0.11 0.11 0.259 0.172 0.414 0.172 0.011 0 0.022 0 0.033-0.001 0.239-0.013 5.886-0.374 9.66-4.147 3.778-3.777 4.137-9.424 4.152-9.662 0.01-0.167-0.052-0.33-0.171-0.448C38.558 67.461 38.41 67.402 38.227 67.407zM33.866 76.859c-2.714 2.713-6.628 3.511-8.203 3.729 0.218-1.576 1.015-5.49 3.73-8.207v0.001c2.718-2.715 6.633-3.51 8.206-3.728C37.383 70.227 36.59 74.136 33.866 76.859zM65.855 57.348c6.189-6.19 6.777-15.459 6.799-15.85 0.01-0.167-0.053-0.329-0.17-0.447-0.118-0.118-0.278-0.179-0.448-0.171-0.297 0.017-5.686 0.361-10.973 3.217 1.195-1.963 1.896-4.258 1.896-6.72 0-7.162-5.825-12.988-12.987-12.988-7.158 0-12.981 5.827-12.981 12.988 0 2.463 0.702 4.759 1.897 6.723-5.29-2.858-10.684-3.204-10.981-3.22-0.167-0.007-0.329 0.053-0.447 0.171-0.119 0.118-0.18 0.281-0.171 0.447 0.022 0.392 0.612 9.661 6.8 15.85 5.406 5.405 13.159 6.539 15.297 6.754v23.399c0 0.324 0.263 0.586 0.586 0.585s0.586-0.263 0.586-0.585V64.102C52.696 63.887 60.449 62.754 65.855 57.348zM49.972 59.727c-0.634-2.837-1.941-6.792-4.613-10.229 1.436 0.549 2.987 0.862 4.613 0.863 1.626 0 3.178-0.314 4.614-0.862C51.913 52.936 50.607 56.891 49.972 59.727zM65.027 56.52c-4.931 4.93-12.165 6.131-14.404 6.393 0.261-2.238 1.463-9.473 6.393-14.404 4.932-4.93 12.165-6.132 14.402-6.393C71.157 44.354 69.957 51.589 65.027 56.52zM49.972 25.561c6.514 0 11.815 5.301 11.815 11.816 0 6.513-5.301 11.812-11.815 11.812-6.512 0-11.809-5.299-11.809-11.812C38.163 30.862 43.461 25.561 49.972 25.561zM34.917 56.52c-4.929-4.932-6.131-12.167-6.392-14.405 2.236 0.259 9.464 1.456 14.404 6.394 4.93 4.93 6.13 12.167 6.392 14.404C47.085 62.654 39.856 61.458 34.917 56.52zM49.386 19.102v-4.441c0-0.324 0.263-0.586 0.586-0.586s0.586 0.263 0.586 0.586v4.441c0 0.324-0.263 0.586-0.586 0.586S49.386 19.425 49.386 19.102zM62.702 24.959c-0.229-0.229-0.229-0.6 0-0.829l3.141-3.142c0.228-0.229 0.6-0.229 0.828-0.001 0.229 0.229 0.229 0.6 0 0.829l-3.14 3.142c-0.114 0.115-0.264 0.172-0.415 0.172S62.816 25.073 62.702 24.959zM33.278 21.818c-0.229-0.229-0.229-0.6 0-0.829 0.228-0.228 0.6-0.229 0.828 0l3.14 3.143c0.229 0.229 0.229 0.6 0 0.828-0.114 0.114-0.264 0.171-0.414 0.172-0.15 0-0.3-0.057-0.414-0.172L33.278 21.818zM40.621 16.637c-0.124-0.299 0.018-0.642 0.317-0.766 0.298-0.122 0.642 0.017 0.766 0.318l1.7 4.104c0.124 0.299-0.018 0.642-0.317 0.766-0.073 0.03-0.149 0.044-0.225 0.045-0.229 0-0.448-0.136-0.541-0.362L40.621 16.637zM66.921 30.034l4.104-1.7c0.296-0.122 0.642 0.018 0.765 0.317 0.124 0.299-0.018 0.642-0.317 0.766l-4.104 1.7c-0.073 0.03-0.149 0.044-0.224 0.045-0.229 0-0.448-0.136-0.542-0.362C66.48 30.501 66.622 30.159 66.921 30.034zM56.545 20.291l1.698-4.102c0.124-0.299 0.468-0.44 0.766-0.317 0.299 0.124 0.441 0.467 0.317 0.765l-1.698 4.102c-0.093 0.226-0.312 0.362-0.542 0.362-0.075 0-0.151-0.014-0.224-0.045C56.563 20.933 56.421 20.59 56.545 20.291zM43.4 77.276l-1.7 4.104c-0.093 0.226-0.312 0.362-0.541 0.362-0.075 0-0.151-0.014-0.225-0.045-0.299-0.124-0.441-0.467-0.317-0.766l1.7-4.103c0.124-0.3 0.467-0.441 0.766-0.317C43.382 76.635 43.524 76.978 43.4 77.276zM59.326 80.935c0.124 0.299-0.018 0.642-0.317 0.765-0.073 0.03-0.149 0.045-0.224 0.045-0.229 0-0.447-0.136-0.542-0.361l-1.702-4.105c-0.124-0.299 0.018-0.642 0.318-0.766 0.297-0.121 0.641 0.018 0.765 0.317L59.326 80.935zM28.157 28.651c0.124-0.3 0.467-0.441 0.766-0.317l4.105 1.7c0.299 0.124 0.441 0.467 0.317 0.766-0.093 0.226-0.312 0.362-0.541 0.362-0.075 0-0.151-0.014-0.224-0.045l-4.105-1.7C28.176 29.293 28.033 28.95 28.157 28.651zM25.587 59.376c0-2.046-1.665-3.711-3.711-3.712s-3.712 1.665-3.712 3.712c0 2.046 1.665 3.711 3.712 3.711S25.587 61.422 25.587 59.376zM21.876 61.915c-1.4 0-2.54-1.139-2.54-2.539 0-1.4 1.14-2.539 2.54-2.54 1.4 0 2.539 1.139 2.539 2.54C24.415 60.776 23.276 61.915 21.876 61.915zM61.773 67.407c-0.161-0.004-0.329 0.053-0.448 0.171-0.119 0.118-0.18 0.281-0.17 0.448 0.014 0.238 0.374 5.886 4.149 9.662 3.779 3.772 9.425 4.133 9.663 4.147 0.011 0 0.022 0.001 0.033 0.001 0.155 0 0.304-0.061 0.414-0.172 0.119-0.118 0.18-0.281 0.171-0.447-0.014-0.238-0.373-5.887-4.15-9.664C67.662 67.779 62.011 67.421 61.773 67.407zM66.132 76.86c-2.715-2.716-3.513-6.631-3.731-8.206 1.576 0.217 5.491 1.014 8.205 3.727 2.717 2.717 3.514 6.633 3.732 8.208C72.765 80.373 68.857 79.58 66.132 76.86zM78.126 55.664c-2.046 0-3.712 1.665-3.712 3.712 0 2.046 1.665 3.711 3.712 3.711 2.046 0 3.71-1.665 3.71-3.711C81.836 57.329 80.171 55.664 78.126 55.664zM78.126 61.915c-1.4 0-2.54-1.139-2.54-2.539 0-1.4 1.14-2.539 2.54-2.54 1.399 0 2.538 1.139 2.538 2.54C80.664 60.776 79.525 61.915 78.126 61.915zM50 0C22.388 0 0 22.386 0 50c0 27.614 22.388 50 50 50 27.615 0 50-22.386 50-50C100 22.386 77.615 0 50 0zM50 98.828C23.076 98.828 1.172 76.924 1.172 50S23.076 1.172 50 1.172 98.828 23.076 98.828 50 76.924 98.828 50 98.828z" fill="#7fc37e" data-fill-palette-color="accent"></path></svg></g></svg></g><g><rect width="78.95100264226961" height="5.688636030371549" y="63.8407186850892" x="242.01347735773035" fill="#7fc37e" data-fill-palette-color="secondary"></rect><rect width="78.95100264226961" height="5.688636030371549" y="63.8407186850892" x="76.53311999999997" fill="#7fc37e" data-fill-palette-color="secondary"></rect></g></svg></g></svg><rect width="395.52" height="207.03478225111206" fill="none" stroke="none" visibility="hidden"></rect></g></svg></g></svg>